<?xml version="1.0" standalone="no"?>
<!DOCTYPE svg PUBLIC "-//W3C//DTD SVG 20010904//EN"
 "http://www.w3.org/TR/2001/REC-SVG-20010904/DTD/svg10.dtd">
<svg version="1.0" xmlns="http://www.w3.org/2000/svg"
 width="256.000000pt" height="256.000000pt" viewBox="0 0 256.000000 256.000000"
 preserveAspectRatio="xMidYMid meet">
<metadata>
Created by potrace 1.11, written by Peter Selinger 2001-2013
</metadata>
<g transform="translate(0.000000,256.000000) scale(0.100000,-0.100000)"
fill="#000000" stroke="none">
<path d="M1894 2445 c-154 -28 -245 -107 -334 -290 -51 -104 -66 -125 -94
-139 -19 -9 -38 -16 -43 -16 -5 0 -31 -14 -56 -31 -56 -37 -92 -93 -108 -169
-6 -30 -19 -65 -28 -77 -53 -73 -233 -71 -391 5 -61 30 -96 57 -200 160 -69
68 -149 140 -178 159 -181 118 -368 85 -441 -77 -26 -57 -22 -154 8 -224 28
-64 138 -172 217 -214 90 -47 136 -41 80 11 -110 103 -145 141 -169 184 -65
121 -31 233 71 233 92 0 189 -63 360 -230 102 -102 157 -147 218 -182 44 -25
86 -53 93 -62 20 -24 6 -55 -54 -119 -35 -38 -76 -100 -117 -178 -103 -198
-171 -268 -297 -309 -141 -44 -248 -24 -356 70 -25 22 -53 40 -61 40 -35 0 24
-111 88 -165 60 -51 114 -69 216 -72 79 -2 104 2 170 25 103 37 180 90 255
176 114 130 211 222 261 246 85 41 227 30 209 -15 -11 -31 -111 -66 -205 -72
-88 -6 -92 -7 -125 -42 -18 -19 -33 -41 -33 -48 0 -17 37 -32 70 -28 14 2 64
6 111 10 94 8 108 0 90 -48 -4 -12 -9 -48 -10 -80 -3 -72 27 -141 92 -213 63
-69 123 -106 237 -144 211 -70 330 -180 288 -267 -15 -32 -94 -78 -148 -88
-125 -21 -115 -65 14 -58 139 8 246 44 305 106 111 113 43 358 -126 449 -64
35 -113 47 -214 53 -161 9 -201 22 -243 78 -31 42 -29 147 3 204 32 55 70 70
131 51 45 -14 80 -46 80 -72 0 -20 -31 -81 -78 -159 -18 -28 -20 -37 -9 -51
10 -14 33 -19 118 -22 l105 -5 13 27 c25 56 38 140 34 227 -3 61 0 87 8 87 6
0 43 -21 81 -47 126 -83 290 -123 404 -98 92 21 220 91 276 151 66 72 94 195
66 289 -27 85 -131 163 -229 170 -132 9 -220 -82 -223 -231 -1 -78 14 -94 41
-43 33 61 79 99 121 99 59 0 111 -43 112 -92 1 -85 -92 -166 -198 -173 -83 -5
-136 20 -235 112 -49 46 -114 98 -144 115 -60 34 -72 50 -53 73 7 8 84 51 172
95 190 96 247 131 310 192 61 60 92 111 118 195 54 179 16 359 -98 464 -91 84
-218 119 -348 94z m-4 -647 c0 -22 -44 -90 -70 -110 -28 -20 -121 -30 -158
-17 -79 29 69 136 191 138 23 1 37 -4 37 -11z"/>
<path d="M437 1244 c-1 -1 -29 -5 -62 -8 -80 -8 -107 -14 -168 -34 -98 -32
-57 -47 153 -55 101 -3 150 -10 197 -26 34 -11 69 -21 78 -21 19 0 60 82 52
103 -7 19 -93 39 -179 42 -37 1 -69 0 -71 -1z"/>
<path d="M1223 527 c-40 -27 -57 -31 -108 -31 -33 0 -81 4 -107 8 -41 8 -48 6
-48 -8 0 -20 81 -73 135 -87 42 -12 132 -14 174 -5 55 12 120 38 132 52 19 23
3 40 -68 73 l-62 29 -48 -31z"/>
</g>
</svg>
